{"title":"Dalziel &amp; Pascoe S11","uid":15587842,"size":3813035760,"categoryP":"video","categoryS":"tv_shows","magnet":"?xt=urn:btih:a79a43f37822e88605c07394ee54d2b7dd14179b&amp;dn=Dalziel+%26amp%3B+Pascoe+S11&amp;tr=udp%3A%2F%2Ftracker.leechers-paradise.org%3A6969&amp;tr=udp%3A%2F%2Fzer0day.ch%3A1337&amp;tr=udp%3A%2F%2Fopen.demonii.com%3A1337&amp;tr=udp%3A%2F%2Ftracker.coppersurfer.tk%3A6969&amp;tr=udp%3A%2F%2Fexodus.desync.com%3A6969","seeders":1,"leechers":0,"uploader":"RedBaron58","files":5,"time":1471484390,"description":"Dalziel and Pascoe S11 DVDrip x264 mp4\r\n  \nhttp://www.imdb.com/title/tt0147760/\r\n\r\nThank you for your kind comments and feedback on my other torrents, your feedback is welcome.\r\n\r\nAbout the Series:\r\nThe series is primarily set in Yorkshire, and follows the work of two detectives that are \r\nthrown together as partners.\r\nSome episodes in this series are divided on on the DVDs into part 1 and part 2 but I have encoded\r\nthese together to give the original episode as broadcast, so don't be supprised at credits\r\nat 50 minutes in, as the whole episode is there and all episodes are approx 100 minutes. \r\n\r\nEpisode 1 &quot;The Cave Woman&quot;\r\nA rescue mission to save several trapped cavers reveals the remains of Lyn Baron, the ex-wife \r\nof the current chief constable, who disappeared in 1985 on the way to see her children.\r\n\r\nEpisode 2 &quot;Fallen Angel&quot;\r\nWhen popular jockey Sammy Hogarth dies from a high dose of warfarin, Dalziel and Pascoe \r\nare forced to investigate the dark side of horse racing.\r\n\r\nEpisode 3 &quot;Demons on Our Shoulders&quot;\r\nInnocent housewife Jean Hamilton is blasted to death with a shotgun in her bedroom on \r\nHalloween, her husband, Guy is quickly identified as the prime suspect.\r\n\r\nEpisode 4 &quot;Project Aphrodite&quot;\r\nResearcher Declan Roach is found dead at the local university, having been poisoned \r\nwith liquid nitrogen in the laboratory clean room.\r\n\r\nEpisode 5 &quot;Under Dark Stars&quot;\r\nIn their final case, Dalziel and Pascoe are faced with the grief of two families \r\nwhose sons were murdered by convicted paedophile Michael Wheeler, only for him \r\nto be acquitted and walk free from court.\r\n\r\nTechnical: (All episodes are encoded to the same settings)\r\n\r\nGeneral\r\nComplete name                            : I:Dalziel &amp; Pascoe S11Dalziel Pascoe S11E01 - The Cave Woman x264 RB58.mp4\r\nFormat                                   : MPEG-4\r\nFormat profile                           : Base Media / Version 2\r\nCodec ID                                 : mp42\r\nFile size                                : 733 MiB\r\nDuration                                 : 1h 42mn\r\nOverall bit rate mode                    : Variable\r\nOverall bit rate                         : 1 000 Kbps\r\nEncoded date                             : UTC 2016-08-11 17:13:35\r\nTagged date                              : UTC 2016-08-11 17:17:04\r\nWriting application                      : HandBrake 0.9.8 2012071700\r\n\r\nVideo\r\nID                                       : 1\r\nFormat                                   : AVC\r\nFormat/Info                              : Advanced Video Codec\r\nFormat profile                           :   \r\nFormat settings, CABAC                   : Yes\r\nFormat settings, ReFrames                : 4 frames\r\nCodec ID                                 : avc1\r\nCodec ID/Info                            : Advanced Video Coding\r\nDuration                                 : 1h 42mn\r\nBit rate                                 : 900 Kbps\r\nWidth                                    : 716 pixels\r\nHeight                                   : 576 pixels\r\nDisplay aspect ratio                     : 16:9\r\nFrame rate mode                          : Constant\r\nFrame rate                               : 25.000 fps\r\nColor space                              : YUV\r\nChroma subsampling                       : 4:2:0\r\nBit depth                                : 8 bits\r\nScan type                                : Progressive\r\nBits/(Pixel*Frame)                       : 0.087\r\nStream size                              : 660 MiB (90%)\r\nWriting library                          : x264 core 120\r\nEncoding settings                        : cabac=1 / ref=1 / deblock=1:0:0\r\nEncoded date                             : UTC 2016-08-11 17:13:35\r\nTagged date                              : UTC 2016-08-11 17:17:04\r\nColor range                              : Limited\r\nColor primaries                          : BT.601 NTSC\r\nTransfer characteristics                 : BT.709\r\nMatrix coefficients                      : BT.601\r\n\r\nAudio\r\nID                                       : 2\r\nFormat                                   : AAC\r\nFormat/Info                              : Advanced Audio Codec\r\nFormat profile                           : LC\r\nCodec ID                                 : 40\r\nDuration                                 : 1h 42mn\r\nBit rate mode                            : Variable\r\nBit rate                                 : 96.0 Kbps\r\nMaximum bit rate                         : 118 Kbps\r\nChannel(s)                               : 2 channels\r\nChannel positions                        : Front: L R\r\nSampling rate                            : 48.0 KHz\r\nCompression mode                         : Lossy\r\nStream size                              : 70.4 MiB (10%)\r\nTitle                                    : Stereo\r\nLanguage                                 : English","torrent":{"xt":"urn:btih:a79a43f37822e88605c07394ee54d2b7dd14179b","amp;dn":"Dalziel+%26amp%3B+Pascoe+S11","amp;tr":["udp%3A%2F%2Ftracker.leechers-paradise.org%3A6969","udp%3A%2F%2Fzer0day.ch%3A1337","udp%3A%2F%2Fopen.demonii.com%3A1337","udp%3A%2F%2Ftracker.coppersurfer.tk%3A6969","udp%3A%2F%2Fexodus.desync.com%3A6969"],"infoHash":"a79a43f37822e88605c07394ee54d2b7dd14179b","infoHashBuffer":{"type":"Buffer","data":[167,154,67,243,120,34,232,134,5,192,115,148,238,84,210,183,221,20,23,155]},"announce":[],"urlList":[]}}